# xmcd
#
# Track frame offsets: 
#        150
#        5754
#        41394
#        59544
#        76757
#        97621
#        113996
#        123552
#        139237
#        159836
#        178414
#        200300
#
# Disc length: 2901 seconds
#
# Revision: 0
# Processed by: cddbd v1.5.2PL0 Copyright (c) Steve Scherf et al.
# Submitted via: ExactAudioCopy v0.99pb4
#
DISCID=980b530c
DTITLE=Eugenio Finardi - Un uomo (Bonus) Cd 4
DYEAR=2007
DGENRE=
TTITLE0=Palloncino Rosso Fuoco
TTITLE1=Oriente
TTITLE2=Nina
TTITLE3=All Over You (Acoustic)
TTITLE4=Pugni Chiusi
TTITLE5=Soul Of Man
TTITLE6=Can't Get Out Of My Head
TTITLE7=Te Voglio Bene Assaje
TTITLE8=Midnight Hour
TTITLE9=E Sto Pensando A Te
TTITLE10=Like A Howling Wolf
TTITLE11=Writing "Pipe Dream"
EXTD=
EXTT0=
EXTT1=
EXTT2=
EXTT3=
EXTT4=
EXTT5=
EXTT6=
EXTT7=
EXTT8=
EXTT9=
EXTT10=
EXTT11=
PLAYORDER=
